# xmcd CD database file
#
# Track frame offsets:
#	150
#	16890
#	36667
#	57485
#	80287
#	112585
#	135172
#	156865
#	174402
#
# Disc length: 2675 seconds
#
# Revision: 0
# Processed by: cddbd v1.4PL0 Copyright (c) Steve Scherf et al.
# Submitted via: CDex 1.40Release
#
DISCID=640a7109
DTITLE=Flying Eggtrays - Flying Eggtrays
DYEAR=1996
DGENRE=Country
TTITLE0=Walking Down On The Street
TTITLE1=At The Cafe
TTITLE2=Take My Heart
TTITLE3=Deepest Forest
TTITLE4=One In A Million
TTITLE5=Slow It Down
TTITLE6=Cowbell Song
TTITLE7=Seven Years
TTITLE8=In The Dark
EXTD=YEAR: 1996 ID3G: 2
EXTT0=
EXTT1=
EXTT2=
EXTT3=
EXTT4=
EXTT5=
EXTT6=
EXTT7=
EXTT8=
PLAYORDER=
